HIERARCHY
ROOT Hips
{
	OFFSET -3.958830 18.904000 13.208200
	CHANNELS 6 Xposition Yposition Zposition Zrotation Yrotation Xrotation 
	JOINT LHipJoint
	{
		OFFSET 0.000000 0.000000 0.000000
		CHANNELS 3 Zrotation Yrotation Xrotation
		JOINT LeftUpLeg
		{
			OFFSET 1.800000 -1.400000 0.085000
			CHANNELS 3 Zrotation Yrotation Xrotation
			JOINT LeftLeg
			{
				OFFSET 2.215000 -6.000000 0.000000
				CHANNELS 3 Zrotation Yrotation Xrotation
				JOINT LeftFoot
				{
					OFFSET 2.500000 -6.900000 0.000000
					CHANNELS 3 Zrotation Yrotation Xrotation
					JOINT LeftToeBase
					{
						OFFSET 0.200000 -0.500000 1.950000
						CHANNELS 3 Zrotation Yrotation Xrotation
						End Site
						{
							OFFSET 0.000000 0.000000 0.000000
						}
					}
				}
			}
		}
	}
	JOINT RHipJoint
	{
		OFFSET 0.000000 0.000000 0.000000
		CHANNELS 3 Zrotation Yrotation Xrotation
		JOINT RightUpLeg
		{
			OFFSET -1.800000 -1.400000 0.085000
			CHANNELS 3 Zrotation Yrotation Xrotation
			JOINT RightLeg
			{
				OFFSET -2.215000 -6.000000 0.000000
				CHANNELS 3 Zrotation Yrotation Xrotation
				JOINT RightFoot
				{
					OFFSET -2.500000 -6.900000 0.000000
					CHANNELS 3 Zrotation Yrotation Xrotation
					JOINT RightToeBase
					{
						OFFSET -0.200000 -0.500000 1.950000
						CHANNELS 3 Zrotation Yrotation Xrotation
						End Site
						{
							OFFSET 0.000000 0.000000 0.000000
						}
					}
				}
			}
		}
	}
	JOINT LowerBack
	{
		OFFSET 0.000000 0.000000 0.000000
		CHANNELS 3 Zrotation Yrotation Xrotation
		JOINT Spine
		{
			OFFSET -0.087000 1.940000 -0.288900
			CHANNELS 3 Zrotation Yrotation Xrotation
			JOINT Spine1
			{
				OFFSET 0.000000 1.950000 0.060000
				CHANNELS 3 Zrotation Yrotation Xrotation
				JOINT Neck
				{
					OFFSET 0.000000 0.000000 0.000000
					CHANNELS 3 Zrotation Yrotation Xrotation
					JOINT Neck1
					{
						OFFSET 0.000000 1.600000 0.340000
						CHANNELS 3 Zrotation Yrotation Xrotation
						JOINT Head
						{
							OFFSET 0.000000 1.667000 -0.240000
							CHANNELS 3 Zrotation Yrotation Xrotation
							End Site
							{
								OFFSET 0.000000 0.000000 0.000000
							}
						}
					}
				}
				JOINT LeftShoulder
				{
					OFFSET 0.000000 0.000000 0.000000
					CHANNELS 3 Zrotation Yrotation Xrotation
					JOINT LeftArm
					{
						OFFSET 2.700000 1.550000 -0.730000
						CHANNELS 3 Zrotation Yrotation Xrotation
						JOINT LeftForeArm
						{
							OFFSET 5.450000 0.000000 0.000000
							CHANNELS 3 Zrotation Yrotation Xrotation
							JOINT LeftHand
							{
								OFFSET 3.450000 0.000000 0.000000
								CHANNELS 3 Zrotation Yrotation Xrotation
								JOINT LeftHandIndex1
								{
									OFFSET 0.750000 0.000000 0.000000
									CHANNELS 3 Zrotation Yrotation Xrotation
									End Site
									{
										OFFSET 0.000000 0.000000 0.000000
									}
								}
							}
						}
					}
				}
				JOINT RightShoulder
				{
					OFFSET 0.000000 0.000000 0.000000
					CHANNELS 3 Zrotation Yrotation Xrotation
					JOINT RightArm
					{
						OFFSET -2.700000 1.550000 -0.730000
						CHANNELS 3 Zrotation Yrotation Xrotation
						JOINT RightForeArm
						{
							OFFSET -5.450000 0.000000 0.000000
							CHANNELS 3 Zrotation Yrotation Xrotation
							JOINT RightHand
							{
								OFFSET -3.450000 0.000000 0.000000
								CHANNELS 3 Zrotation Yrotation Xrotation
								JOINT RightHandIndex1
								{
									OFFSET -0.750000 0.000000 0.000000
									CHANNELS 3 Zrotation Yrotation Xrotation
									End Site
									{
										OFFSET 0.000000 0.000000 0.000000
									}
								}
							}
						}
					}
				}
			}
		}
	}
}
MOTION
Frames: 8
Frame Time: 0.016667
0.790960 15.829720 -10.148820 0.062523 -44.071061 -10.302741 -15.959707 10.507270 6.219495 32.734592 -0.234813 -37.656448 -33.507721 25.152043 36.272684 0.948941 12.039133 0.243511 0.128680 0.131430 0.080530 18.128896 -7.543827 3.099403 -28.868304 6.448769 -24.261495 28.661635 -27.432095 51.438006 -1.840582 -11.399322 0.383797 0.169980 0.153740 0.054950 -2.951255 -3.554465 -9.727056 15.062957 7.107926 44.366985 16.103161 9.097583 13.935439 -10.991305 -4.005723 -11.189726 -11.208152 1.957522 35.353457 -5.709850 4.045640 -11.944270 7.122357 -12.300721 2.771546 23.075302 -10.984690 -1.898508 6.126266 -0.361373 -1.118696 -3.955415 2.629221 0.331120 0.107480 -0.015420 -0.050350 14.512127 17.721670 9.364753 45.033618 3.911991 -17.667206 -28.785850 42.172982 -12.382571 1.890305 -1.484734 -0.208150 0.302530 0.215560 -0.172060 
0.796010 15.764370 -10.132140 -0.022397 -44.486965 -10.354856 -16.031993 10.376360 6.371933 34.234441 0.238505 -37.711579 -35.855866 26.274966 35.847685 1.056015 12.266461 0.185090 0.129600 0.125510 0.097810 18.117616 -7.310375 3.107784 -29.084723 6.620702 -25.250903 28.203390 -28.373981 53.496414 -1.928665 -11.723763 0.292564 0.158040 0.130840 0.057850 -2.866291 -3.732424 -9.846071 15.016399 7.050544 44.431738 16.483296 8.772132 14.006076 -10.795163 -4.057840 -11.327504 -11.451274 2.325051 35.697973 -6.075980 4.430980 -11.771340 7.559429 -12.141009 3.000829 22.815607 -10.226467 -1.468845 3.626938 0.788334 -1.218763 -3.902609 2.584873 0.332070 0.095890 -0.005980 -0.061060 13.670301 17.525962 9.289508 45.424658 3.662543 -17.674927 -28.273154 42.631550 -12.249270 1.895170 -1.480318 -0.196780 0.281450 0.208730 -0.178320 
0.798430 15.715380 -10.121590 -0.004916 -44.695536 -10.611325 -16.068023 10.279427 6.450612 35.237798 0.501459 -37.455305 -37.594491 26.993761 35.426870 1.108751 12.395708 0.148629 0.134890 0.133970 0.113430 18.118335 -7.179128 3.123544 -29.342382 6.680194 -25.849365 27.863713 -29.148620 55.060078 -2.006837 -11.980445 0.224180 0.159510 0.114440 0.060790 -2.847362 -3.790493 -9.915253 15.130863 6.888328 44.717945 16.480516 8.538756 13.975323 -10.697805 -3.818679 -11.129594 -11.079423 2.492590 35.904694 -6.542690 4.943000 -12.314260 7.945756 -11.748535 2.947250 22.594253 -10.243068 -1.288886 2.353628 1.185361 -1.289857 -3.865687 2.567838 0.343580 0.091170 0.008830 -0.069350 12.954263 16.932134 8.976728 46.522886 3.743222 -17.865572 -28.612019 43.547322 -12.622503 1.877461 -1.449518 -0.194250 0.279610 0.207200 -0.188100 
0.794540 15.674730 -10.111130 0.449140 -44.061594 -11.192339 -16.074260 10.215377 6.492257 35.479219 0.192683 -37.604498 -38.578115 27.532137 35.692250 1.150131 12.510575 0.115264 0.147720 0.156530 0.119390 18.126930 -7.140005 3.118570 -30.048074 6.242906 -25.806609 27.702586 -29.860542 55.895399 -2.055982 -12.159103 0.177245 0.169630 0.113430 0.073360 -2.851015 -3.820939 -9.940402 14.936597 6.599124 44.884147 16.401144 8.131995 13.724324 -10.844543 -3.491727 -10.688263 -10.512462 2.538301 35.812521 -6.659290 5.275530 -12.705990 7.781621 -11.388312 2.574777 22.947049 -11.228211 -1.544635 2.082950 1.845189 -1.421234 -3.877026 2.573987 0.337140 0.102180 0.013400 -0.071320 13.241028 16.206780 8.631725 46.842238 3.778691 -17.876018 -28.858759 44.109260 -12.827539 1.859000 -1.442288 -0.182220 0.274920 0.207430 -0.188500 
0.785450 15.638030 -10.103000 0.806542 -43.691636 -11.657773 -16.080965 10.173233 6.516082 35.733781 0.074828 -37.529211 -39.432501 27.904797 35.637261 1.203860 12.565112 0.109640 0.154100 0.169970 0.115410 18.131149 -7.098953 3.131119 -30.576918 5.985717 -25.861500 27.532807 -30.523148 56.844171 -2.107298 -12.339476 0.132152 0.169840 0.112680 0.078630 -2.843316 -3.848666 -9.970276 14.766452 6.468854 44.874877 16.312251 7.870076 13.672092 -10.872222 -3.360415 -10.670202 -10.408264 2.505573 36.134771 -6.385430 5.261930 -12.443790 7.541488 -11.578640 2.479394 23.415815 -11.534794 -1.839895 2.087892 2.379966 -1.514720 -3.890255 2.565626 0.325370 0.102320 0.017660 -0.063520 13.504755 16.212365 8.673109 47.082011 3.600636 -18.070334 -29.305761 44.487608 -13.143990 1.862814 -1.449544 -0.167460 0.266000 0.198380 -0.177870 
0.777850 15.610840 -10.096840 1.134923 -43.414347 -11.994509 -16.100972 10.139921 6.560593 36.069358 0.030656 -37.590435 -40.465497 28.360696 35.528111 1.275254 12.616340 0.111849 0.163870 0.191290 0.116050 18.126536 -7.027479 3.137691 -31.057523 5.777567 -25.955122 27.376812 -31.093451 57.688019 -2.158563 -12.486897 0.095107 0.170560 0.103650 0.077530 -2.791507 -3.948409 -10.015187 14.405562 6.401162 44.796054 16.364069 7.627480 13.541900 -10.773803 -3.411564 -10.734281 -10.710167 2.434181 36.621531 -6.219100 5.090620 -12.232670 6.982424 -11.907589 2.385130 24.199923 -11.549633 -2.167796 1.728855 2.791858 -1.586560 -3.878627 2.551282 0.315440 0.090870 0.032580 -0.049990 13.890123 16.580656 8.909513 46.972484 3.397162 -18.215731 -29.861041 44.660198 -13.440628 1.883819 -1.458659 -0.150180 0.260890 0.177770 -0.161860 
0.770890 15.587100 -10.095530 1.555030 -42.800607 -12.071201 -16.114963 10.100469 6.604608 36.025504 -0.226311 -38.134282 -41.159441 28.573786 35.477242 1.306229 12.647704 0.114561 0.169130 0.197170 0.110000 18.123813 -6.976208 3.151083 -31.723441 5.398043 -26.069461 27.453002 -31.526563 57.892115 -2.181203 -12.558472 0.079014 0.169610 0.105870 0.082740 -2.758908 -4.030943 -10.047054 13.908201 6.323955 44.571578 16.349274 7.403132 13.174831 -10.720978 -3.559329 -10.713264 -11.084983 2.532959 36.662220 -6.195350 5.006700 -12.121660 6.281643 -12.115927 2.237739 25.087566 -11.665855 -2.529939 1.765544 3.033795 -1.646780 -3.884150 2.552886 0.315180 0.090180 0.035580 -0.038440 14.526400 16.832903 9.121858 46.781645 3.072753 -18.306604 -30.204881 44.834238 -13.607902 1.885527 -1.468303 -0.144320 0.256900 0.171160 -0.155060 
0.767170 15.565990 -10.090590 1.567428 -42.804229 -12.052543 -16.126329 10.049968 6.644294 36.424944 -0.101550 -38.232740 -41.755789 28.961713 35.504477 1.337148 12.702391 0.102604 0.184130 0.213160 0.120250 18.126720 -6.933777 3.161484 -31.904741 5.372609 -26.298124 27.305930 -31.815651 58.425862 -2.211702 -12.644691 0.060265 0.174280 0.097550 0.085770 -2.766530 -4.029864 -10.074799 13.909013 6.199328 44.470425 16.199474 7.298443 13.017348 -10.660271 -3.677978 -10.646544 -11.369237 2.748463 36.725768 -6.166620 5.110210 -12.315900 6.044528 -12.013743 2.158030 25.213496 -11.872271 -2.685457 2.001615 3.137613 -1.668531 -3.882270 2.564912 0.316720 0.084730 0.043740 -0.033080 14.615405 16.786860 9.124260 46.798043 2.989225 -18.272110 -29.817719 45.128976 -13.504711 1.880571 -1.468932 -0.135570 0.253260 0.160710 -0.154090 
